<mxfile host="65bd71144e">
    <diagram id="xytPz21ciiZiTQXlwmM_" name="Page-1">
        <mxGraphModel dx="1173" dy="706" grid="1" gridSize="10" guides="1" tooltips="1" connect="1" arrows="1" fold="1" page="1" pageScale="1" pageWidth="850" pageHeight="1100" math="0" shadow="0">
            <root>
                <mxCell id="0"/>
                <mxCell id="1" parent="0"/>
                <mxCell id="96" style="edgeStyle=none;html=1;exitX=1;exitY=0.5;exitDx=0;exitDy=0;entryX=0;entryY=0.5;entryDx=0;entryDy=0;fontSize=10;startArrow=none;startFill=0;" edge="1" parent="1" source="60" target="65">
                    <mxGeometry relative="1" as="geometry"/>
                </mxCell>
                <mxCell id="101" style="edgeStyle=none;html=1;exitX=1;exitY=0;exitDx=0;exitDy=0;entryX=0;entryY=0.5;entryDx=0;entryDy=0;fontSize=10;startArrow=none;startFill=0;" edge="1" parent="1" source="60" target="69">
                    <mxGeometry relative="1" as="geometry"/>
                </mxCell>
                <mxCell id="60" value="Main BOT" style="whiteSpace=wrap;html=1;aspect=fixed;glass=0;rounded=1;" vertex="1" parent="1">
                    <mxGeometry x="10" y="340" width="80" height="80" as="geometry"/>
                </mxCell>
                <mxCell id="107" style="edgeStyle=none;html=1;exitX=1;exitY=0.5;exitDx=0;exitDy=0;entryX=0;entryY=0.5;entryDx=0;entryDy=0;fontSize=10;startArrow=none;startFill=0;" edge="1" parent="1" source="65" target="67">
                    <mxGeometry relative="1" as="geometry"/>
                </mxCell>
                <mxCell id="65" value="TG user_id" style="rounded=1;whiteSpace=wrap;html=1;" vertex="1" parent="1">
                    <mxGeometry x="145" y="363.75" width="80" height="32.5" as="geometry"/>
                </mxCell>
                <mxCell id="66" style="edgeStyle=none;html=1;exitX=1;exitY=0.5;exitDx=0;exitDy=0;entryX=0;entryY=0.5;entryDx=0;entryDy=0;fontSize=10;startArrow=none;startFill=0;" edge="1" parent="1" source="67" target="80">
                    <mxGeometry relative="1" as="geometry"/>
                </mxCell>
                <mxCell id="67" value="Authentification" style="rounded=1;whiteSpace=wrap;html=1;" vertex="1" parent="1">
                    <mxGeometry x="330" y="352" width="90" height="60" as="geometry"/>
                </mxCell>
                <mxCell id="68" style="edgeStyle=none;html=1;" edge="1" parent="1" source="69" target="65">
                    <mxGeometry relative="1" as="geometry"/>
                </mxCell>
                <mxCell id="69" value="USER" style="whiteSpace=wrap;html=1;aspect=fixed;fillColor=#60a917;fontColor=#ffffff;strokeColor=#2D7600;rounded=1;" vertex="1" parent="1">
                    <mxGeometry x="160" y="261.75" width="50" height="50" as="geometry"/>
                </mxCell>
                <mxCell id="71" style="edgeStyle=none;html=1;exitX=1;exitY=0.5;exitDx=0;exitDy=0;fontSize=10;startArrow=none;startFill=0;entryX=0;entryY=0.5;entryDx=0;entryDy=0;" edge="1" parent="1" source="72" target="74">
                    <mxGeometry relative="1" as="geometry">
                        <mxPoint x="690" y="442" as="targetPoint"/>
                        <mxPoint x="640" y="447" as="sourcePoint"/>
                    </mxGeometry>
                </mxCell>
                <mxCell id="72" value="Convertation &lt;br&gt;Logic" style="rounded=1;whiteSpace=wrap;html=1;fontSize=10;glass=0;" vertex="1" parent="1">
                    <mxGeometry x="210" y="592" width="110" height="60" as="geometry"/>
                </mxCell>
                <mxCell id="73" style="edgeStyle=none;html=1;exitX=1;exitY=0.5;exitDx=0;exitDy=0;fontSize=10;startArrow=none;startFill=0;entryX=-0.002;entryY=0.174;entryDx=0;entryDy=0;entryPerimeter=0;" edge="1" parent="1" source="74" target="76">
                    <mxGeometry relative="1" as="geometry">
                        <mxPoint x="509.9999999999998" y="622" as="targetPoint"/>
                    </mxGeometry>
                </mxCell>
                <mxCell id="74" value="TON Api" style="rounded=1;whiteSpace=wrap;html=1;fontSize=10;" vertex="1" parent="1">
                    <mxGeometry x="370" y="602" width="90" height="40" as="geometry"/>
                </mxCell>
                <mxCell id="111" style="edgeStyle=none;html=1;exitX=0;exitY=0.75;exitDx=0;exitDy=0;entryX=0.5;entryY=1;entryDx=0;entryDy=0;fontSize=10;startArrow=none;startFill=0;" edge="1" parent="1" source="76" target="60">
                    <mxGeometry relative="1" as="geometry">
                        <Array as="points">
                            <mxPoint x="50" y="700"/>
                        </Array>
                    </mxGeometry>
                </mxCell>
                <mxCell id="76" value="Accountant logic" style="swimlane;fontStyle=0;childLayout=stackLayout;horizontal=1;startSize=30;horizontalStack=0;resizeParent=1;resizeParentMax=0;resizeLast=0;collapsible=1;marginBottom=0;whiteSpace=wrap;html=1;fontSize=10;fillColor=#e3c800;fontColor=#000000;strokeColor=#B09500;rounded=1;" vertex="1" parent="1">
                    <mxGeometry x="550" y="602" width="140" height="120" as="geometry"/>
                </mxCell>
                <mxCell id="77" value="&lt;span style=&quot;text-align: center;&quot;&gt;Our profit&lt;/span&gt;" style="text;strokeColor=default;fillColor=default;align=left;verticalAlign=middle;spacingLeft=4;spacingRight=4;overflow=hidden;points=[[0,0.5],[1,0.5]];portConstraint=eastwest;rotatable=0;whiteSpace=wrap;html=1;fontSize=10;" vertex="1" parent="76">
                    <mxGeometry y="30" width="140" height="30" as="geometry"/>
                </mxCell>
                <mxCell id="78" value="&lt;span style=&quot;text-align: center;&quot;&gt;Conversion commission&lt;/span&gt;" style="text;strokeColor=default;fillColor=default;align=left;verticalAlign=middle;spacingLeft=4;spacingRight=4;overflow=hidden;points=[[0,0.5],[1,0.5]];portConstraint=eastwest;rotatable=0;whiteSpace=wrap;html=1;fontSize=10;" vertex="1" parent="76">
                    <mxGeometry y="60" width="140" height="30" as="geometry"/>
                </mxCell>
                <mxCell id="79" value="&lt;span style=&quot;text-align: center;&quot;&gt;Withdraw commition&lt;/span&gt;" style="text;strokeColor=default;fillColor=default;align=left;verticalAlign=middle;spacingLeft=4;spacingRight=4;overflow=hidden;points=[[0,0.5],[1,0.5]];portConstraint=eastwest;rotatable=0;whiteSpace=wrap;html=1;fontSize=10;" vertex="1" parent="76">
                    <mxGeometry y="90" width="140" height="30" as="geometry"/>
                </mxCell>
                <mxCell id="80" value="Wallet" style="rounded=1;whiteSpace=wrap;html=1;strokeColor=#B09500;fontSize=10;fillColor=#e3c800;fontColor=#000000;glass=0;" vertex="1" parent="1">
                    <mxGeometry x="455" y="352" width="120" height="62" as="geometry"/>
                </mxCell>
                <mxCell id="86" style="edgeStyle=none;html=1;fontSize=10;startArrow=none;startFill=0;" edge="1" parent="1" source="80">
                    <mxGeometry relative="1" as="geometry">
                        <mxPoint x="270" y="590" as="targetPoint"/>
                        <mxPoint x="505" y="481" as="sourcePoint"/>
                        <Array as="points">
                            <mxPoint x="515" y="540"/>
                            <mxPoint x="270" y="540"/>
                        </Array>
                    </mxGeometry>
                </mxCell>
                <mxCell id="83" value="The money user will receive" style="text;strokeColor=none;fillColor=none;align=left;verticalAlign=middle;spacingLeft=4;spacingRight=4;overflow=hidden;points=[[0,0.5],[1,0.5]];portConstraint=eastwest;rotatable=0;whiteSpace=wrap;html=1;rounded=1;glass=0;fontSize=10;" vertex="1" parent="1">
                    <mxGeometry x="360" y="770" width="80" height="38" as="geometry"/>
                </mxCell>
                <mxCell id="100" style="edgeStyle=none;html=1;exitX=0.13;exitY=0.77;exitDx=0;exitDy=0;exitPerimeter=0;fontSize=10;startArrow=none;startFill=0;" edge="1" parent="1" source="99" target="80">
                    <mxGeometry relative="1" as="geometry"/>
                </mxCell>
                <mxCell id="99" value="&lt;span style=&quot;color: rgb(0, 0, 0);&quot;&gt;Hamster&lt;/span&gt;" style="ellipse;shape=cloud;whiteSpace=wrap;html=1;rounded=1;glass=0;strokeColor=#B09500;fontSize=10;fillColor=#e3c800;fontColor=#000000;" vertex="1" parent="1">
                    <mxGeometry x="650" y="150" width="170" height="111.75" as="geometry"/>
                </mxCell>
                <mxCell id="109" value="NEW USER" style="text;html=1;strokeColor=none;fillColor=none;align=center;verticalAlign=middle;whiteSpace=wrap;rounded=0;glass=0;fontSize=10;" vertex="1" parent="1">
                    <mxGeometry x="70" y="290" width="60" height="30" as="geometry"/>
                </mxCell>
                <mxCell id="110" value="as Memo" style="text;html=1;strokeColor=none;fillColor=none;align=center;verticalAlign=middle;whiteSpace=wrap;rounded=0;glass=0;fontSize=10;" vertex="1" parent="1">
                    <mxGeometry x="250" y="363.75" width="60" height="20" as="geometry"/>
                </mxCell>
            </root>
        </mxGraphModel>
    </diagram>
</mxfile>